<svg xmlns="http://www.w3.org/2000/svg" viewBox="0 0 64 64" role="img" aria-label="DrinkUp favicon">
  <defs>
    <linearGradient id="bg" x1="0" y1="0" x2="1" y2="1">
      <stop offset="0" stop-color="#0d1424"/>
      <stop offset="1" stop-color="#101f36"/>
    </linearGradient>
    <linearGradient id="lime" x1="0" y1="0" x2="1" y2="1">
      <stop offset="0" stop-color="#bef264"/>
      <stop offset="1" stop-color="#22c55e"/>
    </linearGradient>
    <filter id="glow" x="-50%" y="-50%" width="200%" height="200%">
      <feDropShadow dx="0" dy="0" stdDeviation="2.5" flood-color="#22c55e" flood-opacity="0.8"/>
    </filter>
  </defs>

  <rect width="64" height="64" rx="16" fill="url(#bg)"/>

  <path d="M40 12 L46 10 L38 34 L34 34 Z" fill="#a3e635" filter="url(#glow)"/>

  <path d="M20 24 H44 L40 54 H24 Z" fill="#dfffe8" opacity="0.88"/>
  <path d="M23 28 H41 L37.5 50 H26.5 Z" fill="#22c55e" opacity="0.72"/>
  <path d="M22 24 H42" stroke="#ffffff" stroke-width="3" stroke-linecap="round" opacity="0.95"/>
  <path d="M26 54 H38" stroke="#ffffff" stroke-width="3" stroke-linecap="round" opacity="0.9"/>

  <circle cx="21" cy="23" r="11" fill="url(#lime)" filter="url(#glow)"/>
  <circle cx="21" cy="23" r="7" fill="#ecfccb" opacity="0.96"/>
  <path d="M21 16 V30 M14 23 H28 M16 18 L26 28 M26 18 L16 28" stroke="#65a30d" stroke-width="1.4" stroke-linecap="round"/>

  <circle cx="44" cy="39" r="3.2" fill="#bbf7d0" opacity="0.75"/>
  <circle cx="31" cy="35" r="3.8" fill="#bbf7d0" opacity="0.55"/>
</svg>
